<?xml version="1.0" encoding="utf-8"?>
<!-- Generator: Adobe Illustrator 21.0.0, SVG Export Plug-In . SVG Version: 6.00 Build 0)  -->
<svg version="1.1" id="Layer_1" xmlns="http://www.w3.org/2000/svg" xmlns:xlink="http://www.w3.org/1999/xlink" x="0px" y="0px"
	 viewBox="0 0 789.6 378.6" style="enable-background:new 0 0 789.6 378.6;" xml:space="preserve">
<style type="text/css">
	.st0{fill:#231F20;}
	.st1{fill:#539E43;}
</style>
<g>
	<path class="st0" d="M216.3,105.8c-9.1-13.2-5,34.9-9.9,56.4c-4.9,21.4-19.1,27.6-28.3,40c-3.2,4.4-5.7,8.2-7.6,11.6
		c-1.9-18.2-13.7-21.5-25.9-24.4c-13.2-3.2-21.1,4.8-25.6,5c-4.4-0.2-12.4-8.2-25.6-5c-12.2,3-24.1,6.2-25.9,24.4
		c-2-3.4-4.3-7.3-7.6-11.6c-9.2-12.5-23.4-18.6-28.3-40s-0.8-69.5-9.9-56.4c-5.4,7.9-8.8,49.9-1.6,74.2s14.9,31.6,20.5,52.2
		s33,64,78.3,64s72.6-43.3,78.3-64s13.2-27.9,20.5-52.2C225.1,155.7,221.7,113.7,216.3,105.8z M146.9,245.9
		c-13.3,8.9-18.6,2.9-17-4.9c1.7-7.8-4.4-10.9-11-10.9c-6.5,0-12.5,3.2-11,10.9c1.6,7.6-3.7,13.7-17,4.9
		c-6.8-4.4-10.5-8.3-13.3-12.4c-3-6.7-3.4-14.7,7.4-15.9c11.8-1.2,25.7,1.2,33.8,1.2s22.1-2.4,33.8-1.2c10.9,1.1,10.4,9.2,7.4,15.9
		C157.5,237.6,153.6,241.5,146.9,245.9z"/>
	<path class="st0" d="M439.2,149.7c-2.9-17.7,4.3-42.3,0-45.2c-6.9-4.5-8,9.8-10.9,27.5c-2.9,17.7-20.6,25.8-20.6,25.8
		s-8.6-10.9-18.3-17.2c-9.6-6.3-36.1-6.9-36.1-6.9s-26.4,0.6-36.1,6.9c-9.8,6.3-18.3,17.2-18.3,17.2s-17.7-8-20.6-25.8
		c-2.9-17.7-4-32.1-10.9-27.5c-4.3,2.9,2.9,27.5,0,45.2c-2.9,17.7-12.6,33.3-6.9,51.5c5.8,18.4,9.8,40.1,9.8,49.3
		c0,9.2,8.6,22.9,20.6,28c12.1,5.1,15.2,20.1,33.8,20.6c16.1,0.4,17.2,6.3,28.7,6.3c11.5,0,12.5-5.8,28.7-6.3
		c18.6-0.6,21.8-15.5,33.8-20.6s20.6-19,20.6-28s4-30.9,9.8-49.3C451.8,183,442,167.6,439.2,149.7z M388.2,174.4
		c-8,11.4-34.9,9.8-34.9,9.8s-26.9,1.8-34.9-9.8c-8-11.4,30.4,0.6,34.9-13.2C357.8,175,396.3,162.9,388.2,174.4z"/>
</g>
<g>
	<path class="st1" d="M631.7,349.2c-4.4,0-8.5-1.2-12.3-3.2l-39.1-23.2c-5.9-3.2-2.9-4.4-1.2-5c7.9-2.6,9.4-3.2,17.6-7.9
		c0.9-0.6,2.1-0.3,2.9,0.3l30,17.9c1.2,0.6,2.6,0.6,3.5,0l117.2-67.9c1.2-0.6,1.8-1.8,1.8-3.2V121.5c0-1.5-0.6-2.6-1.8-3.2
		L633.2,50.7c-1.2-0.6-2.6-0.6-3.5,0l-117.2,67.6c-1.2,0.6-1.8,2.1-1.8,3.2v135.4c0,1.2,0.6,2.6,1.8,3.2l32,18.5
		c17.3,8.8,28.2-1.5,28.2-11.8V133.3c0-1.8,1.5-3.5,3.5-3.5h15c1.8,0,3.5,1.5,3.5,3.5v133.7c0,23.2-12.6,36.7-34.7,36.7
		c-6.8,0-12,0-27-7.3l-30.8-17.6c-7.6-4.4-12.3-12.6-12.3-21.4V121.8c0-8.8,4.7-17,12.3-21.4l117.2-67.9c7.3-4.1,17.3-4.1,24.7,0
		l117.2,67.9c7.6,4.4,12.3,12.6,12.3,21.4v135.4c0,8.8-4.7,17-12.3,21.4L644,346.5C640.2,348.3,635.8,349.2,631.7,349.2L631.7,349.2
		z M667.8,256.1c-51.4,0-62-23.5-62-43.5c0-1.8,1.5-3.5,3.5-3.5h15.3c1.8,0,3.2,1.2,3.2,2.9c2.4,15.6,9.1,23.2,40.2,23.2
		c24.7,0,35.3-5.6,35.3-18.8c0-7.6-2.9-13.2-41.4-17c-32-3.2-52-10.3-52-35.8c0-23.8,20-37.9,53.5-37.9c37.6,0,56.1,12.9,58.5,41.1
		c0,0.9-0.3,1.8-0.9,2.6c-0.6,0.6-1.5,1.2-2.4,1.2h-15.3c-1.5,0-2.9-1.2-3.2-2.6c-3.5-16.2-12.6-21.4-36.7-21.4
		c-27,0-30.3,9.4-30.3,16.5c0,8.5,3.8,11.2,40.2,15.9c36.1,4.7,53.2,11.5,53.2,36.7C726.3,241.4,705.2,256.1,667.8,256.1
		L667.8,256.1z"/>
</g>
</svg>
